<?xml version="1.0" encoding="UTF-8" standalone="no"?>
<!-- Created with Inkscape (http://www.inkscape.org/) -->

<svg
   width="50mm"
   height="50mm"
   viewBox="0 0 50 50"
   version="1.1"
   id="svg5"
   inkscape:version="1.2.2 (732a01da63, 2022-12-09)"
   sodipodi:docname="TextCodecLogo.svg"
   inkscape:export-filename="TextCodecLogo.pdf"
   inkscape:export-xdpi="96"
   inkscape:export-ydpi="96"
   xmlns:inkscape="http://www.inkscape.org/namespaces/inkscape"
   xmlns:sodipodi="http://sodipodi.sourceforge.net/DTD/sodipodi-0.dtd"
   xmlns="http://www.w3.org/2000/svg"
   xmlns:svg="http://www.w3.org/2000/svg">
  <sodipodi:namedview
     id="namedview7"
     pagecolor="#505050"
     bordercolor="#eeeeee"
     borderopacity="1"
     inkscape:showpageshadow="0"
     inkscape:pageopacity="0"
     inkscape:pagecheckerboard="0"
     inkscape:deskcolor="#505050"
     inkscape:document-units="mm"
     showgrid="false"
     showguides="true"
     inkscape:zoom="1.4142136"
     inkscape:cx="-106.77312"
     inkscape:cy="115.2584"
     inkscape:window-width="1920"
     inkscape:window-height="1009"
     inkscape:window-x="-8"
     inkscape:window-y="-8"
     inkscape:window-maximized="1"
     inkscape:current-layer="layer1" />
  <defs
     id="defs2">
    <rect
       x="-367.39294"
       y="54.094666"
       width="233.6589"
       height="169.79715"
       id="rect1245" />
    <rect
       x="-90.314164"
       y="38.781965"
       width="377.61545"
       height="219.75981"
       id="rect1173" />
  </defs>
  <g
     inkscape:label="Layer 1"
     inkscape:groupmode="layer"
     id="layer1">
    <path
       id="path1004"
       style="font-variation-settings:normal;display:inline;opacity:1;vector-effect:none;fill:#56ffa5;fill-opacity:1;stroke-width:0.282223;stroke-linecap:butt;stroke-linejoin:miter;stroke-miterlimit:4;stroke-dasharray:none;stroke-dashoffset:0;stroke-opacity:0.855019;-inkscape-stroke:none;stop-color:#000000;stop-opacity:1"
       d="M 24.996407,0.01188558 C 17.347596,0.0122285 9.6998711,0.50882981 6.0001506,1.5001668 3.5910426,2.1456856 2.1193764,3.6892293 1.5001668,6.0001506 c -1.95615422,7.3004684 -2.03575546,30.4022084 0,37.9997474 0.6204383,2.315508 2.0904909,3.854364 4.4999838,4.499984 7.4358514,1.99243 30.7197434,1.950674 37.9997474,0 2.359438,-0.632208 3.875931,-2.170978 4.499984,-4.499984 1.976242,-7.37543 1.953609,-30.708783 0,-37.9997474 C 47.864566,3.6291118 46.390132,2.1406277 43.999898,1.5001668 40.295059,0.50745812 32.645218,0.01154266 24.996407,0.01188558 Z M 44.250012,3.5000448 c 1.332292,0.3791455 2.363011,2.0549679 2.75022,3.5000447 1.953608,7.2909635 1.97624,28.6244385 0,35.9998695 -0.520889,1.943979 -2.06147,3.48077 -4.000273,4.000273 -7.280004,1.950673 -28.564019,1.99243 -35.9998695,0 -1.4879868,-0.398707 -2.936328,-1.177678 -3.5000447,-2.75022 L 14.686442,33.063615 v 7.51427 c -0.428978,0.361245 -0.869294,0.847158 -1.32085,1.456759 -0.428976,0.609599 -0.857764,1.230241 -1.286743,1.862418 l 1.219047,1.422652 c 0.451556,-0.993421 0.925942,-1.885584 1.422653,-2.675805 0.519287,-0.767645 0.937064,-1.151351 1.253153,-1.151351 0.293511,0 0.64315,0.214395 1.049548,0.643371 0.406401,0.428979 0.914339,0.858284 1.523938,1.28726 1.10631,0.767645 2.483871,1.218973 4.132048,1.35444 1.648175,0.158045 3.668921,0.237194 6.062162,0.237194 0.609601,0 1.399555,-0.01153 2.370398,-0.03411 0.993421,0 2.065909,-0.02255 3.217375,-0.0677 1.174043,-0.02258 2.359234,-0.05665 3.555855,-0.101803 1.196621,-0.02258 2.325718,-0.05614 3.386873,-0.101286 1.061155,-0.02258 1.975342,-0.05665 2.742985,-0.101802 l 0.542086,-1.862419 c -1.196621,0.112889 -2.664345,0.214581 -4.402832,0.304891 -1.715909,0.112889 -3.555811,0.203055 -5.520076,0.270785 -1.964265,0.06773 -3.928399,0.101802 -5.892664,0.101802 -2.235198,0 -4.165779,-0.06814 -5.791378,-0.203605 -1.60302,-0.112889 -2.912443,-0.507608 -3.928442,-1.18494 -0.654755,-0.451556 -1.174224,-0.869331 -1.558044,-1.253154 -0.361245,-0.4064 -0.733939,-0.654864 -1.117762,-0.745174 v -8.632031 l 1.615922,-1.615922 c -0.0073,0.263128 -0.01453,0.526277 -0.02377,0.798917 -0.04515,1.332088 -0.146846,2.675581 -0.304891,4.030245 -0.158045,1.332088 -0.417519,2.585417 -0.778764,3.759461 0.158045,0.06773 0.36091,0.191965 0.609266,0.372587 0.248353,0.158045 0.429196,0.304299 0.542085,0.439766 0.383823,-1.174043 0.665838,-2.460925 0.84646,-3.860746 0.203201,-1.399822 0.338964,-2.788396 0.406694,-4.165637 h 1.388546 v 5.181596 c 0,0.203198 -0.09068,0.304891 -0.271302,0.304891 h -0.507979 -0.778764 c 0.112889,0.180621 0.203055,0.406545 0.270785,0.677478 0.09031,0.270931 0.146918,0.496855 0.169498,0.677478 0.428979,0 0.801673,-0.01153 1.117762,-0.03411 0.316087,-0.04516 0.575565,-0.124306 0.778763,-0.237195 0.383823,-0.203198 0.575676,-0.666058 0.575676,-1.388545 V 25.748299 l 2.810681,-2.810681 c 0.07443,-0.01364 0.124317,-0.02331 0.203605,-0.03772 -0.293511,0.496711 -0.576044,0.9255 -0.846977,1.286743 -0.248354,0.338667 -0.42868,0.575601 -0.541569,0.711068 -0.225776,0.270934 -0.440171,0.485327 -0.643371,0.643372 -0.180623,0.158042 -0.372994,0.248721 -0.576192,0.271301 0.112887,0.180623 0.203571,0.417557 0.271301,0.711068 0.0903,0.293509 0.146402,0.530446 0.168982,0.711067 0.112889,-0.09031 0.282201,-0.168948 0.507979,-0.236678 0.248356,-0.06773 0.643592,-0.158412 1.185457,-0.271301 0.541867,-0.112889 1.309798,-0.25966 2.303219,-0.440283 l 0.236678,0.948262 1.185457,-0.473873 c -0.09031,-0.451554 -0.248096,-0.993563 -0.473872,-1.62574 -0.225778,-0.632176 -0.48577,-1.219266 -0.779281,-1.761133 l -1.015959,0.406694 c 0.316089,-0.474133 0.621162,-0.959532 0.914673,-1.456242 0.316089,-0.519289 0.620646,-1.038756 0.914156,-1.558045 l -0.557072,-0.28577 0.692465,-0.692465 v 0.368453 h 5.452897 v -1.117244 h -2.032434 c -0.112889,-0.519289 -0.293216,-1.027744 -0.541569,-1.524455 l -1.253154,0.304891 c 0.09031,0.180623 0.169465,0.384004 0.237195,0.609782 l 0.203088,0.609782 h -1.322916 l -0.603064,0.604614 V 9.2025391 l -4.165638,3.2173749 -1.761132,-1.964221 5.92677,-4.5718144 h 3.386873 V 16.258956 l -0.104903,0.104903 v 0.270268 h 1.691886 l -0.778764,0.846977 c 0.880534,0.09031 1.783708,0.259623 2.709396,0.507979 0.925687,0.225778 1.783782,0.496781 2.574003,0.81287 0.812799,0.316089 1.490052,0.643187 2.031917,0.981852 l 1.049549,-1.18494 C 40.007361,18.215042 39.172326,17.85336 38.156327,17.514693 37.140328,17.15345 36.101393,16.859905 35.040238,16.634127 h 6.841443 v 1.524455 h 1.930115 V 15.211991 H 32.538066 Z M 11.846305,5.6125773 c 0.6096,0 1.219231,0.05661 1.828829,0.1694987 0.6096,0.1128887 1.185161,0.3162714 1.727027,0.6097819 0.541865,0.2935105 1.015735,0.6772186 1.422135,1.1513509 0.428977,0.4515547 0.768121,0.9594947 1.016475,1.523938 0.270934,0.5644433 0.451259,1.1515332 0.541569,1.7611332 0.112889,0.609598 0.169499,1.219229 0.169499,1.828829 v 11.345044 c 0,0.609598 -0.05661,1.21923 -0.169499,1.828828 -0.09031,0.6096 -0.270635,1.19669 -0.541569,1.761133 -0.248354,0.564444 -0.587498,1.083912 -1.016475,1.558045 -0.4064,0.451554 -0.88027,0.82425 -1.422135,1.117761 -0.541866,0.293511 -1.117427,0.496376 -1.727027,0.609265 -0.609598,0.112889 -1.219229,0.169499 -1.828829,0.169499 -0.609598,0 -1.219229,-0.05661 -1.828829,-0.169499 C 9.407878,30.764296 8.8317988,30.561431 8.2899333,30.26792 7.7480677,29.974409 7.2626683,29.601713 6.8336914,29.150159 6.4272922,28.676026 6.0886656,28.156558 5.8177327,27.592114 5.5693777,27.027671 5.3890524,26.440581 5.2761637,25.830981 5.1858528,25.221383 5.1407715,24.611751 5.1407715,24.002153 V 12.657109 c 0,-0.6096 0.045081,-1.219231 0.1353922,-1.828829 0.1128887,-0.6096 0.293214,-1.1966899 0.541569,-1.7611332 C 6.0886656,8.5027035 6.4272922,7.9947635 6.8336914,7.5432088 7.2626683,7.0690765 7.7480677,6.6853684 8.2899333,6.3918579 8.8317988,6.0983474 9.407878,5.8949647 10.017476,5.782076 c 0.6096,-0.1128887 1.219231,-0.1694987 1.828829,-0.1694987 z m 0,2.9806966 c -0.496709,0 -0.982109,0.1127033 -1.456242,0.3384807 C 9.9385093,9.1349542 9.5658129,9.4395116 9.2723022,9.8459106 9.0013695,10.25231 8.8095155,10.704156 8.6966268,11.200867 8.6063159,11.674999 8.5612345,12.160398 8.5612345,12.657109 v 6.705533 L 15.131376,14.14694 v -1.489831 c 0,-0.496711 -0.05661,-0.98211 -0.169499,-1.456242 C 14.871567,10.704156 14.679713,10.25231 14.386202,9.8459106 14.115269,9.4395116 13.742573,9.1349542 13.268441,8.9317546 12.816886,8.7059772 12.343016,8.5932739 11.846305,8.5932739 Z m 3.285071,8.7033451 -6.5701415,5.215702 v 1.489832 c 0,0.496709 0.045081,0.993637 0.1353923,1.490348 0.1128887,0.474132 0.3047427,0.914451 0.5756754,1.320849 0.2935107,0.4064 0.6662071,0.722485 1.1177608,0.948263 0.474133,0.2032 0.959533,0.304891 1.456242,0.304891 0.496711,0 0.970581,-0.101691 1.422136,-0.304891 0.474132,-0.225778 0.846828,-0.541863 1.117761,-0.948263 0.293511,-0.406398 0.485365,-0.846717 0.575675,-1.320849 0.112889,-0.496711 0.169499,-0.993639 0.169499,-1.490348 z m 20.146057,1.268139 c -0.158045,0.677334 -0.406507,1.321032 -0.745174,1.930632 -0.338667,0.587021 -0.564072,0.970729 -0.676961,1.151351 -0.225778,0.316085 -0.474243,0.485399 -0.745174,0.507979 0.09031,0.180622 0.180474,0.417557 0.270784,0.711068 0.09031,0.293509 0.157939,0.507904 0.203089,0.643371 0.112887,-0.06773 0.316272,-0.135358 0.609781,-0.203088 0.293511,-0.06773 0.790437,-0.146885 1.490349,-0.237195 -0.270934,0.428978 -0.530926,0.813201 -0.779281,1.151868 -0.248356,0.338665 -0.42868,0.575601 -0.541569,0.711068 -0.406398,0.541865 -0.801636,0.846426 -1.185457,0.914156 0.112889,0.158043 0.214581,0.383967 0.304891,0.677478 0.0903,0.293509 0.146402,0.519433 0.168982,0.677478 0.112889,-0.06773 0.293731,-0.135359 0.542085,-0.203089 0.248356,-0.06773 0.643591,-0.158412 1.185458,-0.271301 0.564443,-0.135467 1.354399,-0.29325 2.370398,-0.473873 l 0.237195,1.049548 1.219047,-0.507979 c -0.09031,-0.474131 -0.259624,-1.038681 -0.50798,-1.693437 -0.248354,-0.677332 -0.519359,-1.297975 -0.81287,-1.862418 l -1.049548,0.406177 c 0.609598,-0.925687 1.162618,-1.873945 1.65933,-2.844788 l -1.286743,-0.609265 c -0.112889,0.293511 -0.248649,0.587057 -0.406694,0.880566 -0.135467,0.270934 -0.282238,0.552951 -0.440283,0.84646 l -1.286743,0.101803 c 0.248356,-0.383823 0.507831,-0.824139 0.778764,-1.32085 0.270932,-0.519287 0.519396,-1.072309 0.745174,-1.65933 z m 6.43475,0.270785 v 17.543115 c 0,0.203201 -0.09016,0.304891 -0.270785,0.304891 H 40.865723 39.91746 c 0.09031,0.2032 0.180475,0.451663 0.270785,0.745174 0.09031,0.270933 0.146918,0.49634 0.169498,0.676961 0.474134,0 0.891392,-0.01101 1.252637,-0.03359 0.361245,-0.04515 0.666317,-0.124306 0.914673,-0.237195 0.248356,-0.158044 0.406143,-0.338885 0.473873,-0.542086 0.06773,-0.225778 0.101802,-0.530333 0.101802,-0.914156 V 18.835543 Z m -2.370915,1.727543 v 14.39292 h 1.388546 v -14.39292 z m -10.667566,0.203088 v 1.015959 h 3.928442 v -1.015959 z m 0,1.625741 v 1.015959 h 3.928442 v -1.015959 z m 8.09408,1.354439 c 0.112887,0.225778 0.214581,0.4517 0.304891,0.677478 0.112887,0.225778 0.214064,0.462713 0.304374,0.711068 l -1.862419,0.304891 c 0.203201,-0.248356 0.406582,-0.519361 0.609782,-0.81287 0.225778,-0.293511 0.440172,-0.587056 0.643372,-0.880567 z M 25.9302,23.881746 c 0.225778,0.428979 0.417631,0.880825 0.575676,1.354956 l -1.794723,0.236679 0.609782,-0.744658 c 0.2032,-0.270934 0.406065,-0.553466 0.609265,-0.846977 z m 2.539897,0.101803 v 2.946073 h 4.301029 v -2.946073 z m 1.253153,1.083655 h 1.727543 v 0.778764 H 29.72325 Z m -9.075931,2.035534 v 2.367298 h -1.32085 l 0.01395,-1.060401 z m 2.539896,0.403077 v 4.063834 h -0.914673 v 1.253154 h 0.914673 v 2.4722 c 0,0.564445 -0.06762,0.94815 -0.203088,1.151351 -0.135467,0.180625 -0.293768,0.293331 -0.47439,0.338481 0.112889,0.180622 0.225592,0.406544 0.338481,0.677478 0.135465,0.248355 0.214615,0.46275 0.237195,0.643371 0.18062,-0.180621 0.463155,-0.372475 0.846976,-0.575675 0.406401,-0.225778 1.094664,-0.552876 2.065507,-0.981852 -0.04516,-0.112889 -0.101252,-0.27119 -0.168982,-0.47439 -0.06774,-0.2032 -0.124348,-0.383524 -0.169498,-0.541569 l -1.185458,0.473873 v -3.183268 h 0.372587 c 0.248356,0.90311 0.586981,1.817297 1.015959,2.742985 0.451556,0.925687 1.027116,1.648022 1.727026,2.167309 0.248355,-0.383821 0.55343,-0.710919 0.914673,-0.981852 -0.587021,-0.383821 -1.09496,-0.936843 -1.523938,-1.65933 -0.406399,-0.745065 -0.734014,-1.501469 -0.982369,-2.269112 h 1.761133 v -1.253154 h -3.250964 v -4.063834 z m 14.291634,0 c -0.180623,0.49671 -0.429085,1.038202 -0.745174,1.625223 -0.316089,0.564445 -0.643185,1.03883 -0.981852,1.422653 0.180623,0.09031 0.360947,0.203013 0.541569,0.33848 0.180623,0.112889 0.338923,0.226109 0.47439,0.338998 0.361243,-0.4064 0.699871,-0.903326 1.015958,-1.490349 0.338667,-0.587021 0.632212,-1.185123 0.880567,-1.794722 z m -11.209651,0.03359 c -0.158045,0.496711 -0.395496,1.038718 -0.711585,1.625741 -0.293511,0.564443 -0.598067,1.038314 -0.914156,1.422135 0.158045,0.09031 0.327359,0.203531 0.507979,0.338998 0.203201,0.112889 0.372513,0.214581 0.50798,0.304891 0.338665,-0.383823 0.665763,-0.869738 0.981852,-1.456759 0.316089,-0.609599 0.587092,-1.2077 0.81287,-1.794723 z m 8.026383,0 v 3.996139 h -0.677478 v 1.253153 h 0.745174 v 2.472201 c 0,0.564443 -0.07915,0.948669 -0.237195,1.151867 -0.135467,0.180625 -0.293767,0.293331 -0.474389,0.338481 0.135467,0.180623 0.259698,0.406545 0.372587,0.677478 0.135465,0.248356 0.214615,0.46275 0.237195,0.643372 0.180621,-0.180622 0.462637,-0.372475 0.84646,-0.575676 0.383821,-0.2032 1.061591,-0.530813 2.032434,-0.982369 -0.04516,-0.112889 -0.101769,-0.270672 -0.169499,-0.473873 -0.06773,-0.203198 -0.124349,-0.384042 -0.169499,-0.542085 l -1.151351,0.474389 v -3.183785 h 0.440284 c 0.225776,0.925688 0.564404,1.840392 1.015958,2.743502 0.451556,0.90311 1.016105,1.602903 1.693437,2.099614 0.225778,-0.361245 0.519323,-0.68886 0.880566,-0.982369 -0.564443,-0.361245 -1.061369,-0.902736 -1.490348,-1.625224 -0.428978,-0.722489 -0.767604,-1.467878 -1.015959,-2.235523 h 1.727543 v -1.253153 h -3.28507 v -3.996139 z m -6.096269,0.169499 v 1.219047 h 3.217375 l -0.440283,3.047876 h -1.286743 c 0.06773,-0.383822 0.135358,-0.77854 0.203088,-1.184941 0.09031,-0.428976 0.157938,-0.858281 0.203088,-1.28726 L 28.809094,29.40234 c -0.06773,0.632177 -0.158412,1.286889 -0.271301,1.964221 -0.112889,0.654754 -0.236603,1.264384 -0.37207,1.828829 h 3.860746 c -0.09031,0.970843 -0.180991,1.693178 -0.271301,2.167309 -0.06773,0.451556 -0.157896,0.7451 -0.270785,0.880567 -0.135467,0.13547 -0.315791,0.203088 -0.541569,0.203088 h -0.508496 c -0.225778,-0.02258 -0.496266,-0.05665 -0.812353,-0.101802 0.09031,0.18062 0.157938,0.395532 0.203088,0.643888 0.04515,0.225778 0.07871,0.428642 0.101286,0.609265 h 0.711584 0.609265 c 0.293511,0 0.530962,-0.03356 0.711585,-0.101286 0.180622,-0.09031 0.349934,-0.214542 0.507979,-0.372587 0.225778,-0.248356 0.395092,-0.700202 0.507979,-1.354956 0.135467,-0.654754 0.248171,-1.681644 0.338481,-3.081466 0.02258,-0.112887 0.03411,-0.25966 0.03411,-0.440283 l 0.03359,-0.271301 h -1.117761 c 0.112889,-0.654754 0.214581,-1.354548 0.304891,-2.099613 0.112889,-0.745067 0.214581,-1.4674 0.304891,-2.16731 z m -0.440283,6.400643 v 1.117761 h 3.522266 v -1.117761 z m 1.795239,3.420463 -0.880566,1.083655 c 0.69991,0.248353 1.433256,0.564441 2.200899,0.948262 0.767643,0.383823 1.366262,0.745505 1.795239,1.084172 l 0.84646,-1.219564 c -0.428976,-0.316089 -1.027079,-0.654714 -1.794722,-1.015959 -0.767643,-0.361243 -1.489976,-0.654788 -2.16731,-0.880566 z m 9.177735,0.169499 -1.117761,1.015958 c 0.790221,0.4064 1.591705,0.903326 2.404504,1.490349 0.812799,0.564443 1.444969,1.083395 1.896525,1.557527 l 1.117761,-1.083655 C 42.604056,40.205555 41.971884,39.686088 41.136507,39.121643 40.323708,38.5572 39.522224,38.083329 38.732003,37.699508 Z m -14.223938,0.406176 v 1.930632 c 0,0.632176 0.101691,1.117575 0.304891,1.456242 0.225778,0.316087 0.609484,0.530482 1.151351,0.643371 0.564443,0.112894 1.343387,0.169499 2.336808,0.169499 h 0.84646 1.62574 1.862419 1.625741 0.914672 c 1.038577,0 1.749381,-0.180841 2.133204,-0.542086 0.383821,-0.383821 0.621274,-1.140224 0.711584,-2.269112 -0.225778,-0.04516 -0.496783,-0.112778 -0.81287,-0.203088 -0.293511,-0.09031 -0.541976,-0.203014 -0.745174,-0.338481 -0.04516,0.835376 -0.169389,1.354327 -0.372587,1.557528 -0.180622,0.180623 -0.56433,0.271301 -1.151351,0.271301 H 33.583997 31.51849 29.520162 28.334705 c -0.903112,0 -1.478671,-0.04508 -1.727027,-0.135392 -0.225778,-0.09031 -0.33848,-0.305222 -0.33848,-0.643889 v -1.896525 z m -2.472201,0.0677 c -0.293509,0.49671 -0.688747,1.005167 -1.185457,1.524454 -0.474133,0.496711 -1.01614,0.880417 -1.625741,1.151351 l 1.422653,1.015959 c 0.677332,-0.383823 1.252892,-0.846679 1.727026,-1.388546 0.474132,-0.541865 0.85784,-1.094887 1.151351,-1.65933 z"
       sodipodi:nodetypes="sssssssssscsssscccccccssccscccccccssccccccccccccccssccccccsccccscccccscccsccccccccccccccccccccccccccccccccccccccssscccsscccssssscccsscccsssscccsccscccsccscccscccscccccscscsccccsccccccccccccccccsscccccccsccccccccccccccccccccccccccccccccccccccccccccccccsccccccccccccccccccccccccccccccccccccccccccsccccscsccccsccscccccccccccccccccccscccccscccccccccccccccccsccscccccccccsccsccccsccccsscccscsccccccscc" />
  </g>
</svg>
